<svg xmlns="http://www.w3.org/2000/svg" viewBox="0 0 16 16"><style>.icon-canvas-transparent{opacity:0;fill:#f6f6f6}.icon-vs-out{fill:#f6f6f6}.icon-vs-bg{fill:#424242}.icon-vs-fg{fill:#f0eff1}</style><path class="icon-canvas-transparent" d="M16 16H0V0h16v16z" id="canvas"/><path class="icon-vs-out" d="M15 16H2V0h8.621L15 4.379V16z" id="outline"/><g id="iconFg"><path class="icon-vs-fg" d="M8.445 9.076a.487.487 0 0 0-.186-.131.623.623 0 0 0-.227-.042.615.615 0 0 0-.387.128 1.037 1.037 0 0 0-.278.328 1.73 1.73 0 0 0-.167.451 2.354 2.354 0 0 0-.053.486c0 .141.017.261.047.365a.824.824 0 0 0 .132.26.553.553 0 0 0 .422.207.65.65 0 0 0 .381-.117.94.94 0 0 0 .272-.321c.073-.135.127-.294.164-.479.034-.184.053-.382.053-.593 0-.125-.017-.232-.047-.321a.58.58 0 0 0-.126-.221zM10 2.207V5h2.793z"/><path class="icon-vs-fg" d="M9 6V2H4v12h9V6H9zm1.861 4.495a2.12 2.12 0 0 1-.362.644c-.15.172-.319.303-.509.391a1.33 1.33 0 0 1-.575.132c-.258 0-.454-.073-.591-.22-.138-.146-.206-.345-.206-.595h-.017c-.038.131-.09.246-.158.346-.066.1-.143.185-.232.254a1.02 1.02 0 0 1-.621.209c-.15 0-.293-.029-.427-.086a.948.948 0 0 1-.356-.255 1.286 1.286 0 0 1-.24-.431 1.853 1.853 0 0 1-.089-.602c0-.271.037-.522.113-.755.073-.233.176-.435.311-.604.135-.17.293-.303.48-.399.185-.097.391-.144.615-.144a.774.774 0 0 1 .452.126c.061.04.113.088.155.143.044.057.073.12.091.188h.013l.036-.4h.612c-.002.047-.008.124-.018.23l-.031.364c-.013.136-.027.281-.038.431l-.038.429c-.01.133-.021.252-.027.354-.006.104-.012.174-.012.217 0 .133.01.244.026.328a.611.611 0 0 0 .072.203c.03.051.065.085.11.104.043.019.09.03.143.03a.527.527 0 0 0 .303-.1.851.851 0 0 0 .257-.289c.073-.127.134-.279.179-.463.046-.182.068-.388.068-.617 0-.16-.018-.325-.051-.494a2.174 2.174 0 0 0-.164-.488 2.088 2.088 0 0 0-.291-.443 1.781 1.781 0 0 0-.429-.364 2.217 2.217 0 0 0-.58-.246 2.75 2.75 0 0 0-.749-.091c-.349 0-.674.065-.971.196A2.373 2.373 0 0 0 5.84 9.087a2.803 2.803 0 0 0-.182 1.016c0 .346.054.665.162.955.109.291.266.539.472.749.206.207.455.37.75.487.296.117.631.176 1.005.176a4.23 4.23 0 0 0 .87-.082c.123-.025.24-.058.347-.095.107-.038.211-.08.309-.122v.568a2.644 2.644 0 0 1-.592.177 5.351 5.351 0 0 1-.992.084c-.437 0-.84-.067-1.205-.202a2.757 2.757 0 0 1-.945-.58 2.61 2.61 0 0 1-.618-.908A3.04 3.04 0 0 1 5 10.126c0-.289.032-.565.099-.832a3.19 3.19 0 0 1 .285-.746 2.865 2.865 0 0 1 1.072-1.122c.228-.135.48-.24.756-.315S7.78 7 8.095 7c.4 0 .775.06 1.126.18.352.119.658.29.922.514.263.223.473.496.627.817.152.322.23.686.23 1.09 0 .339-.047.636-.139.894z"/><g><path class="icon-vs-fg" d="M8.445 9.076a.487.487 0 0 0-.186-.131.623.623 0 0 0-.227-.042.615.615 0 0 0-.387.128 1.037 1.037 0 0 0-.278.328 1.73 1.73 0 0 0-.167.451 2.354 2.354 0 0 0-.053.486c0 .141.017.261.047.365a.824.824 0 0 0 .132.26.553.553 0 0 0 .422.207.65.65 0 0 0 .381-.117.94.94 0 0 0 .272-.321c.073-.135.127-.294.164-.479.034-.184.053-.382.053-.593 0-.125-.017-.232-.047-.321a.58.58 0 0 0-.126-.221zM10 2.207V5h2.793z"/><path class="icon-vs-fg" d="M9 6V2H4v12h9V6H9zm1.861 4.495a2.12 2.12 0 0 1-.362.644c-.15.172-.319.303-.509.391a1.33 1.33 0 0 1-.575.132c-.258 0-.454-.073-.591-.22-.138-.146-.206-.345-.206-.595h-.017c-.038.131-.09.246-.158.346-.066.1-.143.185-.232.254a1.02 1.02 0 0 1-.621.209c-.15 0-.293-.029-.427-.086a.948.948 0 0 1-.356-.255 1.286 1.286 0 0 1-.24-.431 1.853 1.853 0 0 1-.089-.602c0-.271.037-.522.113-.755.073-.233.176-.435.311-.604.135-.17.293-.303.48-.399.185-.097.391-.144.615-.144a.774.774 0 0 1 .452.126c.061.04.113.088.155.143.044.057.073.12.091.188h.013l.036-.4h.612c-.002.047-.008.124-.018.23l-.031.364c-.013.136-.027.281-.038.431l-.038.429c-.01.133-.021.252-.027.354-.006.104-.012.174-.012.217 0 .133.01.244.026.328a.611.611 0 0 0 .072.203c.03.051.065.085.11.104.043.019.09.03.143.03a.527.527 0 0 0 .303-.1.851.851 0 0 0 .257-.289c.073-.127.134-.279.179-.463.046-.182.068-.388.068-.617 0-.16-.018-.325-.051-.494a2.174 2.174 0 0 0-.164-.488 2.088 2.088 0 0 0-.291-.443 1.781 1.781 0 0 0-.429-.364 2.217 2.217 0 0 0-.58-.246 2.75 2.75 0 0 0-.749-.091c-.349 0-.674.065-.971.196A2.373 2.373 0 0 0 5.84 9.087a2.803 2.803 0 0 0-.182 1.016c0 .346.054.665.162.955.109.291.266.539.472.749.206.207.455.37.75.487.296.117.631.176 1.005.176a4.23 4.23 0 0 0 .87-.082c.123-.025.24-.058.347-.095.107-.038.211-.08.309-.122v.568a2.644 2.644 0 0 1-.592.177 5.351 5.351 0 0 1-.992.084c-.437 0-.84-.067-1.205-.202a2.757 2.757 0 0 1-.945-.58 2.61 2.61 0 0 1-.618-.908A3.04 3.04 0 0 1 5 10.126c0-.289.032-.565.099-.832a3.19 3.19 0 0 1 .285-.746 2.865 2.865 0 0 1 1.072-1.122c.228-.135.48-.24.756-.315S7.78 7 8.095 7c.4 0 .775.06 1.126.18.352.119.658.29.922.514.263.223.473.496.627.817.152.322.23.686.23 1.09 0 .339-.047.636-.139.894z"/></g></g><g id="iconBg"><path class="icon-vs-bg" d="M10.771 8.511a2.427 2.427 0 0 0-.627-.817 2.795 2.795 0 0 0-.922-.514A3.458 3.458 0 0 0 8.095 7a3.38 3.38 0 0 0-.883.111c-.275.075-.527.18-.756.315a2.804 2.804 0 0 0-.615.49 2.82 2.82 0 0 0-.457.633c-.124.231-.22.48-.285.745a3.397 3.397 0 0 0-.099.832c0 .435.073.831.221 1.184a2.624 2.624 0 0 0 1.563 1.488c.365.135.768.202 1.205.202a5.351 5.351 0 0 0 .992-.084 2.644 2.644 0 0 0 .592-.177v-.568a4.976 4.976 0 0 1-.309.122 2.962 2.962 0 0 1-.347.095 3.734 3.734 0 0 1-.403.06 4.01 4.01 0 0 1-.467.022c-.374 0-.709-.059-1.005-.176a2.163 2.163 0 0 1-.75-.487 2.109 2.109 0 0 1-.472-.749 2.72 2.72 0 0 1-.162-.955c0-.363.06-.702.182-1.015.122-.313.29-.586.505-.816a2.337 2.337 0 0 1 1.742-.739c.28 0 .531.029.749.091.218.061.413.144.58.246.17.105.311.226.429.365a2.063 2.063 0 0 1 .456.932 2.572 2.572 0 0 1-.017 1.111 1.727 1.727 0 0 1-.179.463.851.851 0 0 1-.257.289.532.532 0 0 1-.303.1.365.365 0 0 1-.143-.03.24.24 0 0 1-.11-.105.59.59 0 0 1-.072-.203 1.717 1.717 0 0 1-.026-.328c0-.043.006-.113.012-.217.006-.102.018-.221.027-.354l.037-.429c.01-.152.024-.297.037-.433l.032-.364c.01-.106.016-.183.018-.23h-.613l-.036.4h-.013a.546.546 0 0 0-.246-.331.774.774 0 0 0-.452-.126c-.224 0-.43.047-.615.144a1.45 1.45 0 0 0-.481.399c-.134.169-.237.37-.311.604a2.418 2.418 0 0 0-.113.755c0 .229.03.43.089.602.059.173.141.314.24.431.102.114.219.2.356.255a1.079 1.079 0 0 0 .76.031.954.954 0 0 0 .288-.154 1.18 1.18 0 0 0 .39-.6h.017c0 .25.068.449.206.595.137.147.333.22.591.22.195 0 .387-.043.575-.132.189-.088.358-.219.509-.391a2.08 2.08 0 0 0 .362-.644c.093-.258.14-.555.14-.894a2.54 2.54 0 0 0-.229-1.09zM8.565 10.21c-.037.186-.09.345-.164.479a.94.94 0 0 1-.272.321.65.65 0 0 1-.381.117.553.553 0 0 1-.422-.207.813.813 0 0 1-.132-.26 1.279 1.279 0 0 1-.047-.365c0-.158.018-.32.053-.486.038-.165.091-.315.167-.451.073-.133.167-.241.278-.327a.615.615 0 0 1 .387-.128c.082 0 .157.015.227.042a.487.487 0 0 1 .186.131.576.576 0 0 1 .125.22c.03.089.047.196.047.321.001.211-.018.409-.052.593zM3 1v14h11V4.793L10.207 1H3zm10 13H4V2h5v4h4v8zm-3-9V2.207L12.793 5H10z"/></g></svg>