<svg xmlns="http://www.w3.org/2000/svg" width="16" height="16"><style type="text/css">.icon-canvas-transparent{opacity:0;fill:#F6F6F6;} .icon-vs-out{fill:#F6F6F6;} .icon-vs-bg{fill:#424242;} .icon-vs-fg{fill:#F0EFF1;} .icon-asp-html-wpf-blue{fill:#0095D7;}</style><path class="icon-canvas-transparent" d="M16 16h-16v-16h16v16z" id="canvas"/><path class="icon-vs-out" d="M16 15h-7.344c-.894.629-1.98 1-3.156 1s-2.263-.371-3.156-1h-2.344v-14h16v14z" id="outline"/><path class="icon-vs-bg" d="M15 2v12h-5.257c.253-.307.469-.643.651-1h3.606v-8h-12v1.258c-.381.315-.716.682-1 1.086v-5.344h14z" id="iconBg"/><path class="icon-vs-fg" d="M14 5v8h-3.606c.385-.75.606-1.6.606-2.5 0-3.037-2.463-5.5-5.5-5.5h8.5zm-12 1.258c.951-.786 2.17-1.258 3.5-1.258h-3.5v1.258z" id="iconFg"/><path class="icon-asp-html-wpf-blue" d="M10.027 10.543l-.008-.152c-.081-2.414-2.058-4.348-4.492-4.348-2.485 0-4.5 2.015-4.5 4.5l.02.389.045.341.002.013c.313 1.891 1.803 3.38 3.696 3.691l.013.002.338.045.387.02.439-.022c2.278-.223 4.06-2.142 4.06-4.479zm-2.592-1.067c.467-.073.961-.198 1.489-.388.191.445.298.938.298 1.455l-.012.24c-.667.291-1.268.465-1.831.555.07-.393.108-.768.104-1.119-.001-.259-.023-.503-.048-.743zm1.145-1.017c-.442.153-.857.258-1.255.319-.138-.661-.354-1.233-.589-1.725.757.262 1.4.759 1.844 1.406zm-3.053 5.78l-.324-.018c-.322-.717-.57-1.43-.725-2.124.336.033.686.057 1.045.059l.259.002c.224 0 .45-.006.678-.018-.196.638-.487 1.335-.87 2.095l-.063.004zm.004-2.782c-.41-.006-.803-.035-1.182-.079-.055-.392-.082-.778-.078-1.153.002-.247.02-.507.043-.737.387.044.789.056 1.209.056h.259c.314 0 .632.012.956-.012.025.219.044.451.046.683.004.372-.044.778-.135 1.208-.376.024-.744.036-1.118.034zm-.004-4.61l.313.016c.302.522.607 1.187.786 1.997-.368.025-.729.029-1.095.025-.386-.004-.76-.03-1.119-.071.15-.782.398-1.424.644-1.934.154-.02.311-.033.471-.033zm-1.34.254c-.186.465-.355 1-.471 1.613-.443-.079-.85-.175-1.222-.281.417-.598 1.006-1.065 1.693-1.332zm-2.356 3.442c0-.525.112-1.025.31-1.481.44.131.931.254 1.478.346-.028.262-.047.529-.049.811-.004.342.021.694.063 1.051-.691-.126-1.288-.299-1.788-.467l-.014-.26zm.151 1.044c.513.157 1.102.31 1.765.415.132.673.349 1.359.632 2.053-1.153-.377-2.052-1.301-2.397-2.468zm4.435 2.54c.35-.737.62-1.424.795-2.054.574-.073 1.186-.22 1.856-.472-.372 1.245-1.383 2.213-2.651 2.526z" id="colorImportance"/></svg>